<svg width="117" height="48" viewBox="0 0 117 48" fill="none" xmlns="http://www.w3.org/2000/svg">
<g clip-path="url(#clip0_1_1367)">
<g clip-path="url(#clip1_1_1367)" filter="url(#filter0_i_1_1367)">
<g clip-path="url(#clip2_1_1367)">
<rect width="32" height="32" transform="translate(0.500031 8)" fill="url(#paint0_linear_1_1367)"/>
<path d="M16.5 25.625H10C9.10257 25.625 8.37503 24.8975 8.37503 24C8.37503 23.1025 9.10257 22.375 10 22.375H16.5C17.3975 22.375 18.125 23.1025 18.125 24C18.125 24.8975 17.3975 25.625 16.5 25.625Z" fill="white" fill-opacity="0.6"/>
<path d="M16.5 17.5H10C9.10257 17.5 8.37503 16.7725 8.37503 15.875C8.37503 14.9775 9.10257 14.25 10 14.25H16.5C21.8848 14.25 26.25 18.6152 26.25 24C26.25 29.3848 21.8848 33.75 16.5 33.75H10C9.10257 33.75 8.37503 33.0225 8.37503 32.125C8.37503 31.2275 9.10257 30.5 10 30.5H16.5C20.0899 30.5 23 27.5899 23 24C23 20.4102 20.0899 17.5 16.5 17.5Z" fill="white"/>
</g>
</g>
<path d="M47.764 30H39.94V18.8H47.46V20.752H42.02V23.36H47.028V25.312H42.02V28.048H47.764V30ZM56.8204 18.624V30H54.8684V28.736C54.6444 29.184 54.2977 29.536 53.8284 29.792C53.3697 30.048 52.847 30.176 52.2604 30.176C51.183 30.176 50.2977 29.8027 49.6044 29.056C48.911 28.2987 48.5644 27.2373 48.5644 25.872C48.5644 24.528 48.911 23.4827 49.6044 22.736C50.2977 21.9893 51.183 21.616 52.2604 21.616C52.815 21.616 53.3217 21.728 53.7804 21.952C54.239 22.1653 54.591 22.464 54.8364 22.848V18.624H56.8204ZM54.8844 25.872C54.8844 25.0827 54.671 24.4693 54.2444 24.032C53.8284 23.5947 53.3217 23.376 52.7244 23.376C52.095 23.376 51.5777 23.6 51.1724 24.048C50.7777 24.4853 50.5804 25.0933 50.5804 25.872C50.5804 26.64 50.7777 27.248 51.1724 27.696C51.5777 28.1333 52.095 28.352 52.7244 28.352C53.3217 28.352 53.8284 28.1333 54.2444 27.696C54.671 27.248 54.8844 26.64 54.8844 25.872ZM63.3904 21.664V23.6H62.8624C61.433 23.6 60.7184 24.3893 60.7184 25.968V30H58.7344V21.76H60.7024V22.976C61.097 22.1013 61.8117 21.664 62.8464 21.664H63.3904ZM70.9059 24.288V30H68.9699V28.8C68.4152 29.7173 67.5512 30.176 66.3779 30.176C65.6525 30.176 65.0232 29.9733 64.4899 29.568C63.9779 29.152 63.7219 28.5387 63.7219 27.728C63.7219 26.2987 64.5965 25.456 66.3459 25.2L68.0099 24.96C68.6499 24.864 68.9699 24.576 68.9699 24.096C68.9699 23.8187 68.8419 23.6107 68.5859 23.472C68.3405 23.3227 68.0152 23.248 67.6099 23.248C67.0872 23.248 66.6872 23.3493 66.4099 23.552C66.1432 23.7547 65.9565 24.0587 65.8499 24.464H63.9619C64.1219 23.536 64.5325 22.832 65.1939 22.352C65.8659 21.8613 66.7299 21.616 67.7859 21.616C68.7779 21.616 69.5459 21.84 70.0899 22.288C70.6339 22.7253 70.9059 23.392 70.9059 24.288ZM68.9219 26.544V26.096C68.7299 26.1707 68.3779 26.2507 67.8659 26.336L67.0339 26.464C66.1485 26.5813 65.7059 26.9493 65.7059 27.568C65.7059 28.208 66.1005 28.528 66.8899 28.528C67.4979 28.528 67.9832 28.336 68.3459 27.952C68.7299 27.568 68.9219 27.0987 68.9219 26.544ZM84.8952 21.76L82.0312 30H80.1272L78.3352 24.656L76.5592 30H74.6392L71.7912 21.76H73.9032L75.6472 27.344L77.4072 21.76H79.3432L81.1192 27.344L82.8472 21.76H84.8952ZM97.5092 18.8V30H95.5573V22.112L92.6772 30H90.8052L87.9252 22.112V30H86.0212V18.8H88.6612L91.7652 27.36L94.8692 18.8H97.5092ZM106.22 24.288V30H104.284V28.8C103.73 29.7173 102.866 30.176 101.692 30.176C100.967 30.176 100.338 29.9733 99.8042 29.568C99.2922 29.152 99.0362 28.5387 99.0362 27.728C99.0362 26.2987 99.9109 25.456 101.66 25.2L103.324 24.96C103.964 24.864 104.284 24.576 104.284 24.096C104.284 23.8187 104.156 23.6107 103.9 23.472C103.655 23.3227 103.33 23.248 102.924 23.248C102.402 23.248 102.002 23.3493 101.724 23.552C101.458 23.7547 101.271 24.0587 101.164 24.464H99.2762C99.4362 23.536 99.8469 22.832 100.508 22.352C101.18 21.8613 102.044 21.616 103.1 21.616C104.092 21.616 104.86 21.84 105.404 22.288C105.948 22.7253 106.22 23.392 106.22 24.288ZM104.236 26.544V26.096C104.044 26.1707 103.692 26.2507 103.18 26.336L102.348 26.464C101.463 26.5813 101.02 26.9493 101.02 27.568C101.02 28.208 101.415 28.528 102.204 28.528C102.812 28.528 103.298 28.336 103.66 27.952C104.044 27.568 104.236 27.0987 104.236 26.544ZM113.506 30L111.618 27.376L109.73 30H107.234L110.306 25.92L107.186 21.76H109.746L111.602 24.336L113.426 21.76H115.89L112.898 25.776L116.066 30H113.506Z" fill="black"/>
</g>
<defs>
<filter id="filter0_i_1_1367" x="0.5" y="8" width="32" height="32" filterUnits="userSpaceOnUse" color-interpolation-filters="sRGB">
<feFlood flood-opacity="0" result="BackgroundImageFix"/>
<feBlend mode="normal" in="SourceGraphic" in2="BackgroundImageFix" result="shape"/>
<feColorMatrix in="SourceAlpha" type="matrix" values="0 0 0 0 0 0 0 0 0 0 0 0 0 0 0 0 0 0 127 0" result="hardAlpha"/>
<feOffset/>
<feGaussianBlur stdDeviation="0.5"/>
<feComposite in2="hardAlpha" operator="arithmetic" k2="-1" k3="1"/>
<feColorMatrix type="matrix" values="0 0 0 0 0 0 0 0 0 0 0 0 0 0 0 0 0 0 0.24 0"/>
<feBlend mode="darken" in2="shape" result="effect1_innerShadow_1_1367"/>
</filter>
<linearGradient id="paint0_linear_1_1367" x1="33.4546" y1="37.3333" x2="2.33165" y2="-7.93634" gradientUnits="userSpaceOnUse">
<stop stop-color="#0066FF"/>
<stop offset="1" stop-color="#66CCFF"/>
</linearGradient>
<clipPath id="clip0_1_1367">
<rect width="116" height="48" fill="white" transform="translate(0.5)"/>
</clipPath>
<clipPath id="clip1_1_1367">
<rect width="32" height="32" fill="white" transform="translate(0.5 8)"/>
</clipPath>
<clipPath id="clip2_1_1367">
<rect x="0.5" y="8" width="32" height="32" rx="7.30097" fill="white"/>
</clipPath>
</defs>
</svg>
